# AST/ASF file generated using VICON BodyLanguage
# -----------------------------------------------
:version 1.10
:name VICON
:units
  mass 1.0
  length 0.45
  angle deg
:documentation
   .ast/.asf automatically generated from VICON data using
   VICON BodyBuilder and BodyLanguage model FoxedUp or BRILLIANT.MOD
:root
   order TX TY TZ RX RY RZ
   axis XYZ
   position 0 0 0  
   orientation 0 0 0 
:bonedata
  begin
     id 1 
     name lhipjoint
     direction 0.627457 -0.725269 0.283342 
     length 2.53237 
     axis 0 0 0  XYZ
  end
  begin
     id 2 
     name lfemur
     direction 0.34202 -0.939693 0  
     length 7.32496  
     axis 0 0 20  XYZ
    dof rx ry rz
    limits (-160.0 20.0)
           (-70.0 70.0)
           (-60.0 70.0)
  end
  begin
     id 3 
     name ltibia
     direction 0.34202 -0.939693 0   
     length 7.69674   
     axis 0 0 20   XYZ
    dof rx
    limits (-10.0 170.0)
  end
  begin
     id 4 
     name lfoot
     direction 0.127289 -0.349722 0.928166   
     length 1.8612   
     axis -90 7.62852e-016 20   XYZ
    dof rx rz
    limits (-45.0 90.0)
           (-70.0 20.0)
  end
  begin
     id 5 
     name ltoes
     direction 1.53561e-011 -4.21864e-011 1   
     length 0.925608   
     axis -90 7.62852e-016 20   XYZ
    dof rx
    limits (-90.0 20.0)
  end
  begin
     id 6 
     name rhipjoint
     direction -0.609094 -0.738725 0.288599   
     length 2.48624  
     axis 0 0 0  XYZ 
  end
  begin
     id 7 
     name rfemur
     direction -0.34202 -0.939693 0   
     length 7.44259   
     axis 0 0 -20   XYZ
    dof rx ry rz
    limits (-160.0 20.0)
           (-70.0 70.0)
           (-70.0 60.0)
  end
  begin
     id 8 
     name rtibia
     direction -0.34202 -0.939693 0   
     length 7.7781   
     axis 0 0 -20   XYZ
    dof rx
    limits (-10.0 170.0)
 end
 begin
     id 9 
     name rfoot
     direction -0.107015 -0.294021 0.949789   
     length 2.14741  
     axis -90 -7.62852e-016 -20   XYZ
    dof rx rz
    limits (-45.0 90.0)
           (-20.0 70.0)
  end
  begin
     id 10 
     name rtoes
     direction -1.53497e-011 -4.21924e-011 1   
     length 1.0706   
     axis -90 -7.62852e-016 -20   XYZ
    dof rx
    limits (-90.0 20.0)
  end
  begin
     id 11 
     name lowerback
     direction -0.0142066 0.998112 -0.0597545   
     length 1.86627   
     axis 0 0 0   XYZ
    dof rx ry rz
    limits (-20.0 45.0)
           (-30.0 30.0)
           (-30.0 30.0)
  end
  begin
     id 12 
     name upperback
     direction 0.00547294 0.999744 0.0219437   
     length 1.86272   
     axis 0 0 0   XYZ
    dof rx ry rz
    limits (-20.0 45.0)
           (-30.0 30.0)
           (-30.0 30.0)
  end
  begin
     id 13 
     name thorax
     direction 0.0116162 0.998704 0.0495538   
     length 1.8703   
     axis 0 0 0   XYZ
    dof rx ry rz
    limits (-20.0 45.0)
           (-30.0 30.0)
           (-30.0 30.0)
  end
  begin
     id 14 
     name lowerneck
     direction -0.0106574 0.998739 0.0490586   
     length 1.8074   
     axis 0 0 0   XYZ
    dof rx ry rz
    limits (-20.0 45.0)
           (-30.0 30.0)
           (-30.0 30.0)
  end
  begin
     id 15 
     name upperneck
     direction 0.030527 0.976587 -0.212944   
     length 1.80681   
     axis 0 0 0   XYZ
    dof rx ry rz
    limits (-20.0 45.0)
           (-30.0 30.0)
           (-30.0 30.0)
  end
  begin
     id 16
     name head
     direction 0.00869225 0.997035 -0.0764531  
     length 1.8313  
     axis 0 0 0   XYZ
    dof rx ry rz
    limits (-20.0 45.0)
           (-30.0 30.0)
           (-30.0 30.0)
  end
  begin
     id 17 
     name lclavicle
     direction 0.915958 0.399447 0.0382386  
     length 3.78965  
     axis 0 0 0   XYZ
    dof ry rz
    limits (-20.0 10.0)
           (0.0 20.0)
  end
  begin
     id 18 
     name lhumerus
     direction 1 -4.48967e-011 3.19303e-027   
     length 4.78095   
     axis -180 -30 -90   XYZ
    dof rx ry rz
    limits (-60.0 90.0)
           (-90.0 90.0)
           (-90.0 90.0)
  end
  begin
     id 19
     name lradius
     direction 1 -4.48967e-011 -3.77974e-027   
     length 3.58615   
     axis -180 -30 -90   XYZ
    dof rx
    limits (-10.0 170.0)
  end
  begin
     id 20
     name lwrist
     direction 1 -4.48927e-011 1.2807e-027   
     length 1.79307   
     axis 1.91374e-015 90 90   XYZ
    dof ry
    limits (-180.0 0.0)
 end
  begin
     id 21 
     name lhand
     direction 1 -4.49036e-011 2.5614e-027   
     length 0.659812   
     axis -1.63439e-015 90 90   XYZ
    dof rx rz
    limits (-90.0 90.0)
           (-45.0 45.0)
  end
  begin
     id 22 
     name lfingers
     direction 1 -4.49052e-011 5.1228e-027   
     length 0.531957   
     axis -3.26879e-015 90 90   XYZ
    dof rx
    limits (0.0 90.0)
  end
  begin
     id 23
     name lthumb
     direction 0.707107 -6.35012e-011 0.707107   
     length 0.763787   
     axis -90 45 2.85299e-015   XYZ
    dof rx rz
    limits (-45.0 45.0)
           (-45.0 45.0)
  end
  begin
     id 24 
     name rclavicle
     direction -0.895351 0.435135 0.0948887   
     length 3.70497  
     axis 0 0 0   XYZ 
    dof ry rz
    limits (-10.0 20.0)
           (-20.0 0.0)
  end
  begin
     id 25 
     name rhumerus
     direction -1 -4.48971e-011 2.38946e-027  
     length 4.48913   
     axis -180 30 90   XYZ
    dof rx ry rz
    limits (-90.0 60.0)
           (-90.0 90.0)
           (-90.0 90.0)
  end
  begin
     id 26 
     name rradius
     direction -1 -4.4895e-011 4.38668e-027   
     length 3.7051   
     axis -180 30 90   XYZ
    dof rx
    limits (-10.0 170.0)
  end
  begin
     id 27 
     name rwrist
     direction -1 -4.49007e-011 1.2807e-027   
     length 1.85255   
     axis 1.91374e-015 -90 -90   XYZ
    dof ry
    limits (-180.0 0.0)
  end
  begin
     id 28
     name rhand
     direction -1 -4.48851e-011 2.5614e-027   
     length 0.449136   
     axis -1.63439e-015 -90 -90   XYZ
    dof rx rz
    limits (-90.0 90.0)
           (-45.0 45.0)
  end
  begin
     id 29
     name rfingers
     direction -1 -4.49128e-011 5.1228e-027   
     length 0.362105   
     axis -3.26879e-015 -90 -90   XYZ
    dof rx
    limits (0.0 90.0)
  end
  begin
     id 30
     name rthumb
     direction -0.707107 -6.34851e-011 0.707107   
     length 0.519912   
     axis -90 -45 -2.85299e-015   XYZ
    dof rx rz
    limits (-45.0 45.0)
           (-45.0 45.0)
  end
:hierarchy
  begin
    root lhipjoint rhipjoint lowerback
    lhipjoint lfemur
    lfemur ltibia
    ltibia lfoot
    lfoot ltoes
    rhipjoint rfemur
    rfemur rtibia
    rtibia rfoot
    rfoot rtoes
    lowerback upperback
    upperback thorax
    thorax lowerneck lclavicle rclavicle
    lowerneck upperneck
    upperneck head
    lclavicle lhumerus
    lhumerus lradius
    lradius lwrist
    lwrist lhand lthumb
    lhand lfingers
    rclavicle rhumerus
    rhumerus rradius
    rradius rwrist
    rwrist rhand rthumb
    rhand rfingers
  end

#!OML:ASF I:\Actors\actors\Patient Classification 2\Patient 1\Session 1\actor1.ASF
:FULLY-SPECIFIED
:DEGREES
19
root -0.616785 18.5502 5.98409 -2.07831 -2.15561 -2.08028
lowerback 7.73986 0.320085 0.842438
upperback -2.17378 0.527945 0.211588
thorax -6.61653 0.229816 -0.322719
lowerneck -11.0087 -1.99117 -1.44827
upperneck 25.9276 -3.13896 2.29226
head 10.1167 -1.33803 0.68012
rclavicle 1.17531e-014 -1.21259e-014
rhumerus -49.7024 -11.3513 -81.5903
rradius 41.8642
rwrist 16.3
rhand -5.56243 -33.8327
rfingers 7.12502
rthumb 20.2529 -62.7968
lclavicle 1.17531e-014 -1.21259e-014
lhumerus -43.0861 6.48327 86.4644
lradius 38.0614
lwrist -3.8449
lhand -13.8374 -29.088
lfingers 7.12502
lthumb 12.2859 0.53104
rfemur 10.9592 -1.92335 15.2779
rtibia -1.27222e-014
rfoot -14.2036 -7.87125
rtoes -5.51089
lfemur -1.90524 -2.95025 -12.2803
ltibia 24.7101
lfoot -22.5669 9.61768
ltoes -56.6402
20
root -0.616583 18.5507 5.98421 -2.05373 -2.15288 -2.05254
lowerback 7.73811 0.325133 0.811442
upperback -2.17721 0.530406 0.194334
thorax -6.61921 0.231884 -0.323671
lowerneck -11.0272 -1.99147 -1.41688
upperneck 25.91 -3.14394 2.28616
head 10.1134 -1.33791 0.671827
rclavicle -2.9271e-014 1.03368e-014
rhumerus -49.7097 -11.391 -81.58
rradius 41.8671
rwrist 16.354
rhand -5.61643 -33.6835
rfingers 7.12502
rthumb 20.201 -62.6532
lclavicle -2.9271e-014 1.03368e-014
lhumerus -43.0637 6.48494 86.4478
lradius 38.0376
lwrist -3.79897
lhand -13.8902 -28.9744
lfingers 7.12502
lthumb 12.235 0.64771
rfemur 10.9316 -1.92667 15.247
rtibia -1.59028e-015
rfoot -14.2275 -7.86827
rtoes -5.30996
lfemur -1.92966 -2.941 -12.3111
ltibia 24.7038
lfoot -22.5777 9.61196
ltoes -56.639
21
root -0.617368 18.551 5.98507 -2.02701 -2.13252 -2.02961
lowerback 7.73297 0.32084 0.786485
upperback -2.19116 0.521071 0.177442
thorax -6.63118 0.227852 -0.326085
lowerneck -10.9932 -1.99513 -1.42601
upperneck 25.8793 -3.15043 2.30101
head 10.0962 -1.34067 0.678145
rclavicle -8.32411e-015 4.77083e-015
rhumerus -49.7225 -11.3992 -81.5793
rradius 41.8753
rwrist 16.3795
rhand -5.62149 -33.525
rfingers 7.12502
rthumb 20.1962 -62.4952
lclavicle -8.32411e-015 4.77083e-015
lhumerus -43.0775 6.49802 86.4173
lradius 38.0266
lwrist -3.7851
lhand -13.9306 -28.9308
lfingers 7.12502
lthumb 12.196 0.693656
rfemur 10.9068 -1.94836 15.2237
rtibia 3.81667e-014
rfoot -14.2321 -7.86962
rtoes -5.27306
lfemur -1.96084 -2.93471 -12.3313
ltibia 24.7034
lfoot -22.5688 9.57391
ltoes -56.5888
22
root -0.618349 18.5512 5.98609 -2.01923 -2.10059 -2.00927
lowerback 7.71411 0.314829 0.755597
upperback -2.18571 0.509115 0.169321
thorax -6.61488 0.223146 -0.315468
lowerneck -10.9361 -1.9995 -1.42103
upperneck 25.8308 -3.14873 2.27134
head 10.0669 -1.34366 0.667604
rclavicle 6.11263e-015 -5.76476e-015
rhumerus -49.6912 -11.3578 -81.5978
rradius 41.8893
rwrist 16.2993
rhand -5.59117 -33.5718
rfingers 7.12502
rthumb 20.2253 -62.5389
lclavicle 6.11263e-015 -5.76476e-015
lhumerus -43.0858 6.49193 86.4058
lradius 38.0336
lwrist -3.78856
lhand -13.9214 -28.9558
lfingers 7.12502
lthumb 12.2049 0.668073
rfemur 10.9092 -1.97997 15.201
rtibia -1.11319e-014
rfoot -14.214 -7.86183
rtoes -5.40839
lfemur -1.97687 -2.94582 -12.3475
ltibia 24.7067
lfoot -22.5486 9.5381
ltoes -56.5599
23
root -0.618032 18.5517 5.98689 -2.02004 -2.08849 -2.02758
lowerback 7.70933 0.309688 0.783952
upperback -2.18119 0.504801 0.16496
thorax -6.60714 0.219823 -0.335347
lowerneck -10.9129 -1.99073 -1.39883
upperneck 25.8203 -3.13606 2.25307
head 10.0576 -1.33801 0.65914
rclavicle -5.69021e-015 3.57812e-015
rhumerus -49.6678 -11.3754 -81.5694
rradius 41.8748
rwrist 16.3704
rhand -5.4242 -33.5979
rfingers 7.12502
rthumb 20.3858 -62.5479
lclavicle -5.69021e-015 3.57812e-015
lhumerus -43.0881 6.49179 86.3772
lradius 38.0105
lwrist -3.81308
lhand -13.9201 -29.0445
lfingers 7.12502
lthumb 12.2062 0.579372
rfemur 10.9205 -1.99214 15.2156
rtibia 1.11319e-014
rfoot -14.1994 -7.84773
rtoes -5.42992
lfemur -1.97397 -2.95506 -12.3307
ltibia 24.7073
lfoot -22.5435 9.56812
ltoes -56.6269
24
root -0.618343 18.5516 5.98761 -2.00333 -2.08928 -2.03781
lowerback 7.70511 0.30819 0.800248
upperback -2.19539 0.504016 0.156925
thorax -6.61957 0.218506 -0.352832
lowerneck -10.8972 -1.98624 -1.41121
upperneck 25.8211 -3.13534 2.2839
head 10.0556 -1.33554 0.67233
rclavicle 5.97596e-015 -1.39149e-014
rhumerus -49.6932 -11.3836 -81.5609
rradius 41.944
rwrist 16.5484
rhand -5.29582 -33.4037
rfingers 7.12502
rthumb 20.5092 -62.3404
lclavicle 5.97596e-015 -1.39149e-014
lhumerus -43.1024 6.53071 86.3209
lradius 37.969
lwrist -3.83703
lhand -13.8887 -29.2022
lfingers 7.12502
lthumb 12.2364 0.419843
rfemur 10.9067 -1.99327 15.2279
rtibia -9.54166e-015
rfoot -14.1884 -7.84943
rtoes -5.26839
lfemur -1.98842 -2.96754 -12.3231
ltibia 24.7082
lfoot -22.5517 9.60959
ltoes -56.6908
25
root -0.6196 18.5512 5.98814 -1.9797 -2.08191 -2.03086
lowerback 7.69951 0.314718 0.787179
upperback -2.21265 0.510876 0.147796
thorax -6.63459 0.222097 -0.355971
lowerneck -10.8815 -1.99747 -1.4354
upperneck 25.8134 -3.1546 2.31689
head 10.0512 -1.34323 0.685906
rclavicle 4.31114e-015 -3.77691e-015
rhumerus -49.7286 -11.2619 -81.6963
rradius 42.2247
rwrist 16.5407
rhand -5.70071 -33.4122
rfingers 7.12502
rthumb 20.12 -62.3903
lclavicle 4.31114e-015 -3.77691e-015
lhumerus -43.1241 6.56574 86.2832
lradius 37.9589
lwrist -3.84216
lhand -13.8015 -29.2067
lfingers 7.12502
lthumb 12.3205 0.410305
rfemur 10.8835 -2.00321 15.2281
rtibia -1.43125e-014
rfoot -14.1882 -7.86888
rtoes -5.26053
lfemur -2.01864 -2.96565 -12.3234
ltibia 24.7124
lfoot -22.5394 9.6112
ltoes -56.6772
26
root -0.620472 18.5516 5.98914 -1.96396 -2.07487 -2.02334
lowerback 7.71704 0.323236 0.785918
upperback -2.23916 0.521508 0.132527
thorax -6.67248 0.226786 -0.372888
lowerneck -10.8485 -2.01186 -1.45833
upperneck 25.8071 -3.18088 2.35757
head 10.0443 -1.35334 0.701313
rclavicle -1.06847e-015 9.93923e-016
rhumerus -49.7711 -11.3726 -81.5628
rradius 42.1063
rwrist 16.4891
rhand -6.6902 -32.9853
rfingers 7.12502
rthumb 19.1688 -62.0607
lclavicle -1.06847e-015 9.93923e-016
lhumerus -43.1728 6.56577 86.2589
lradius 37.9606
lwrist -3.84209
lhand -13.7394 -29.0624
lfingers 7.12502
lthumb 12.3803 0.550974
rfemur 10.8698 -2.01169 15.224
rtibia -4.77083e-015
rfoot -14.1794 -7.87163
rtoes -5.35916
lfemur -2.03954 -2.94669 -12.3221
ltibia 24.7163
lfoot -22.5229 9.59472
ltoes -56.6661
27
root -0.621004 18.5521 5.99089 -1.95227 -2.07118 -1.99851
lowerback 7.72201 0.328643 0.771798
upperback -2.26345 0.52621 0.112682
thorax -6.70095 0.229037 -0.386483
lowerneck -10.789 -2.01338 -1.47916
upperneck 25.7707 -3.18527 2.38564
head 10.0205 -1.35505 0.714767
rclavicle -1.01877e-015 3.57812e-015
rhumerus -49.7986 -11.2881 -81.6299
rradius 42.2971
rwrist 16.4739
rhand -5.49689 -33.5681
rfingers 7.12502
rthumb 20.3159 -62.5255
lclavicle -1.01877e-015 3.57812e-015
lhumerus -43.2326 6.5705 86.228
lradius 37.9512
lwrist -3.84507
lhand -13.7381 -28.9887
lfingers 7.12502
lthumb 12.3816 0.624642
rfemur 10.8615 -2.01508 15.1957
rtibia 3.18055e-015
rfoot -14.1462 -7.84988
rtoes -5.21283
lfemur -2.04984 -2.93833 -12.3468
ltibia 24.7172
lfoot -22.527 9.57698
ltoes -56.7022
28
root -0.621699 18.5521 5.99324 -1.93428 -2.06594 -2.00292
lowerback 7.68024 0.334906 0.775859
upperback -2.26613 0.53429 0.107746
thorax -6.67964 0.232829 -0.394699
lowerneck -10.7499 -2.01512 -1.48055
upperneck 25.7276 -3.18527 2.38183
head 9.99734 -1.35628 0.714025
rclavicle 9.06955e-016 -1.2921e-014
rhumerus -49.7497 -11.3411 -81.5364
rradius 42.1163
rwrist 16.1544
rhand -5.12826 -34.0914
rfingers 7.12502
rthumb 20.6702 -63.0107
lclavicle 9.06955e-016 -1.2921e-014
lhumerus -43.2571 6.60747 86.2017
lradius 37.9333
lwrist -3.86852
lhand -13.8039 -28.9293
lfingers 7.12502
lthumb 12.3182 0.68783
rfemur 10.8519 -2.02215 15.202
rtibia 3.65764e-014
rfoot -14.128 -7.84259
rtoes -5.16147
lfemur -2.05871 -2.94838 -12.3423
ltibia 24.7145
lfoot -22.5307 9.58068
ltoes -56.7169
29
root -0.623139 18.552 5.99625 -1.9109 -2.05134 -1.9977
lowerback 7.61692 0.342182 0.741785
upperback -2.26327 0.540318 0.114312
thorax -6.64053 0.237544 -0.368967
lowerneck -10.7566 -2.02612 -1.45989
upperneck 25.7338 -3.19084 2.32704
head 9.99965 -1.36288 0.69057
rclavicle -9.91439e-015 6.95746e-015
rhumerus -49.7256 -11.3075 -81.5336
rradius 42.1266
rwrist 15.8878
rhand -5.5971 -33.7798
rfingers 7.12502
rthumb 20.2196 -62.7474
lclavicle -9.91439e-015 6.95746e-015
lhumerus -43.2552 6.68869 86.1895
lradius 37.8981
lwrist -3.9238
lhand -13.8747 -28.8721
lfingers 7.12502
lthumb 12.25 0.749131
rfemur 10.8398 -2.03893 15.2004
rtibia 4.29375e-014
rfoot -14.1586 -7.84334
rtoes -5.23888
lfemur -2.07114 -2.93641 -12.3423
ltibia 24.7056
lfoot -22.5085 9.59484
ltoes -56.7469
30
root -0.624472 18.5516 5.99947 -1.90707 -2.04936 -1.95112
lowerback 7.58207 0.356439 0.678039
upperback -2.2649 0.551787 0.101943
thorax -6.62256 0.245603 -0.347314
lowerneck -10.7793 -2.03048 -1.40454
upperneck 25.7586 -3.18139 2.22151
head 10.0099 -1.36464 0.645015
rclavicle 6.85807e-015 -2.18663e-015
rhumerus -49.754 -11.4327 -81.3746
rradius 42.0868
rwrist 16.1519
rhand -6.31601 -33.4292
rfingers 7.12502
rthumb 19.5286 -62.4685
lclavicle 6.85807e-015 -2.18663e-015
lhumerus -43.2954 6.73737 86.1808
lradius 37.9003
lwrist -3.98537
lhand -13.9085 -28.9068
lfingers 7.12502
lthumb 12.2173 0.716413
rfemur 10.8424 -2.03898 15.1475
rtibia -7.95139e-015
rfoot -14.1946 -7.82328
rtoes -5.05882
lfemur -2.06004 -2.91448 -12.3903
ltibia 24.6914
lfoot -22.4966 9.60767
ltoes -56.7643
31
root -0.6248 18.5518 6.00193 -1.91685 -2.05471 -1.91676
lowerback 7.57867 0.367337 0.66191
upperback -2.2727 0.562805 0.0717056
thorax -6.62858 0.25096 -0.371333
lowerneck -10.7703 -2.02618 -1.3509
upperneck 25.7796 -3.1738 2.16999
head 10.0137 -1.36168 0.618801
rclavicle 9.08197e-015 -1.98785e-016
rhumerus -49.7924 -11.5818 -81.2309
rradius 42.0288
rwrist 16.4228
rhand -7.48196 -32.8985
rfingers 7.12502
rthumb 18.4072 -62.0476
lclavicle 9.08197e-015 -1.98785e-016
lhumerus -43.3788 6.72074 86.1675
lradius 37.953
lwrist -3.96907
lhand -13.9391 -28.9211
lfingers 7.12502
lthumb 12.1878 0.703868
rfemur 10.8543 -2.03073 15.1048
rtibia -2.22639e-014
rfoot -14.1649 -7.8128
rtoes -5.04912
lfemur -2.02745 -2.96893 -12.4419
ltibia 24.6739
lfoot -22.5195 9.66015
ltoes -56.7122
32
root -0.625866 18.552 6.00343 -1.92535 -2.04648 -1.90914
lowerback 7.5793 0.369041 0.653035
upperback -2.27989 0.563171 0.0551663
thorax -6.63647 0.251084 -0.383731
lowerneck -10.7379 -2.02084 -1.31883
upperneck 25.79 -3.1725 2.16557
head 10.0106 -1.3587 0.612282
rclavicle -2.12203e-014 6.75868e-015
rhumerus -49.8319 -11.5763 -81.2418
rradius 42.1182
rwrist 16.5358
rhand -7.3229 -32.8501
rfingers 7.12502
rthumb 18.5602 -61.9847
lclavicle -2.12203e-014 6.75868e-015
lhumerus -43.4264 6.76823 86.1337
lradius 37.9682
lwrist -3.94816
lhand -13.9233 -28.9093
lfingers 7.12502
lthumb 12.2031 0.714701
rfemur 10.8667 -2.03834 15.0994
rtibia 2.70347e-014
rfoot -14.1003 -7.82994
rtoes -5.38778
lfemur -2.00244 -3.02834 -12.4569
ltibia 24.6579
lfoot -22.5396 9.68106
ltoes -56.6695
33
root -0.627962 18.5514 6.00435 -1.94176 -2.03462 -1.92185
lowerback 7.59037 0.367144 0.657979
upperback -2.28216 0.560663 0.046137
thorax -6.64512 0.249401 -0.395729
lowerneck -10.689 -2.0202 -1.30411
upperneck 25.7555 -3.17718 2.17718
head 9.9887 -1.35886 0.613802
rclavicle 1.16289e-014 1.19271e-015
rhumerus -49.8562 -11.4713 -81.3604
rradius 42.3524
rwrist 16.7641
rhand -5.51174 -33.2697
rfingers 7.12502
rthumb 20.3017 -62.2286
lclavicle 1.16289e-014 1.19271e-015
lhumerus -43.4823 7.02477 85.9955
lradius 38.0066
lwrist -4.17002
lhand -13.8026 -28.9579
lfingers 7.12502
lthumb 12.3194 0.659161
rfemur 10.8905 -2.05034 15.1203
rtibia -2.06736e-014
rfoot -14.0757 -7.84934
rtoes -5.57813
lfemur -1.98456 -2.99765 -12.4262
ltibia 24.6478
lfoot -22.5281 9.62373
ltoes -56.6978
